<svg id="Layer_2" data-name="Layer 2" xmlns="http://www.w3.org/2000/svg" viewBox="0 0 190.07 141.18"><defs><style>.cls-1{fill:#ae864a;}.cls-2{fill:#162047;}.cls-3{fill:#d71f33;}.cls-4{fill:#fff;}</style></defs><title>pelicans</title><path class="cls-1" d="M105.93,11c0.39-1.86,2.38-4.46,5.24-4.46a4.58,4.58,0,0,1,4.85,4.2,3.61,3.61,0,0,1-3.6,3.81c-2.12,0-2.73-1.43-2.73-1.86a1,1,0,0,1,1-1.08c0.78,0,.87.65,1.78,0.65a1.33,1.33,0,0,0,1.21-1.52,2.17,2.17,0,0,0-2.43-1.86c-1.78,0-3.29,2-3.29,3.68s0.74,4,4.64,4,3.9-2.77,10.75-2.77,11.09,5.55,11.09,5.55c18.29,2.69,40.86,10.27,49.88,14.43S196,45,196,49V60.54h-0.61a7.12,7.12,0,0,1,1,4.16v7.54a15.7,15.7,0,0,1-9.58,13.69c-4.25,6.28-8.8,6.93-8.8,6.93l1.13,0.22c-5,6.89-11,7.37-11,7.37l1.13,0.48c-6.24,5.55-11.87,5.85-11.87,5.85-7.28,22.1-27.91,40.6-56,40.6-30.12,0-50.23-21.45-56.08-40.52A22.94,22.94,0,0,1,33.43,101l0.78-.56c-6.46-1.21-10.7-7.32-10.7-7.32l1.08-.26c-6.5-2.12-8.45-6.8-8.45-6.8-5.07-1.3-8.62-7.37-8.62-8.49V64.13a6.44,6.44,0,0,1-1.17-3.86A9.19,9.19,0,0,1,7.56,55.9V49.7a3.81,3.81,0,0,1-1.17-3.08V39.74A207.52,207.52,0,0,1,68,19.41s4.59-5.55,11.14-5.55c6.11,0,7.32,2.82,10.66,2.82,2,0,4.81-.61,4.81-3.81,0-2.43-1.65-4-3.16-4a2.65,2.65,0,0,0-2.56,2,1.62,1.62,0,0,0,1.3,1.52c0.69,0,1-.65,1.52-0.65a1.22,1.22,0,0,1,1.17,1.13c0,0.61-.78,1.78-2.82,1.78a3.56,3.56,0,0,1-3.42-3.81,4.61,4.61,0,0,1,4.64-4.25c4.25,0,5.46,4.51,5.46,4.51l4.64-4.85Zm12.13,6.33s8.67,0.43,12.52,1.3A11.49,11.49,0,0,0,118.06,17.37ZM72,18.72s6.85-1,12.61-1.34C79.79,15.34,75.5,16,72,18.72Z" transform="translate(-6.34 -6.19)"/><path class="cls-2" d="M101.31,9.66c-2.8,2.62-4.11,4.62-4.2,6.88a4,4,0,0,0-3.1,2.8,203.5,203.5,0,0,0-75,17v1.4a4.37,4.37,0,0,0-2.56-.3c-0.89.39-7.68,3.72-7.68,3.72v4.59c0,2.38,1.13,2.89,1.13,2.89v8.16a7,7,0,0,0-1.13,3.48A3,3,0,0,0,9.94,63V77.06c1.64,3.6,5.15,7.71,12.57,7.6a18.07,18.07,0,0,1-3.45,1.85s3,5.24,11.67,5l-3.87,2S30.91,99.1,39.75,99l-3.22,1.76s4.73,4.29,10.9,4.17c2.56,11.44,18.44,40,54.12,40a56.13,56.13,0,0,0,53.85-39.85s6.55-.5,10.75-4.38L162.91,99s8,0.54,12.84-5.51l-4.08-2s7.89,0.74,11.88-5l-3.4-1.79C189.48,84.86,194,76.94,194,72.26V64.94c0-4.35-3.6-9.32-3.6-9.32l3.19,1.4V48.82c0-4.59-4-9.77-9.26-12.24s-35.92-16.17-75.56-17.3c0,0-.33-1.91-3.1-2.77C105.43,13.26,103.18,11.56,101.31,9.66Z" transform="translate(-6.34 -6.19)"/><path class="cls-3" d="M101.35,26.87a1.07,1.07,0,0,0,.62-1.22s1-.09,1-0.48c0-.74-0.8-0.6-1-1.46h2.14V22.65h-0.86a1.09,1.09,0,0,1,.92-1.43,0.81,0.81,0,0,1,.77,1.31,1.62,1.62,0,0,0,1.61-1.76,1.8,1.8,0,0,0-1.88-1.88c-1.43,0-2.26,1.61-2.32,3.81h-0.39c-0.18-3.31,1.31-4,1.31-5.69s-1.85-3.69-1.85-3.69h0s-1.85,2-1.85,3.69,1.49,2.38,1.31,5.69h-0.39c-0.06-2.2-.89-3.81-2.32-3.81a1.8,1.8,0,0,0-1.88,1.88,1.62,1.62,0,0,0,1.61,1.76,0.82,0.82,0,0,1,.77-1.31,1.09,1.09,0,0,1,.92,1.43H98.67v1.07h2.14c-0.24.86-1,.71-1,1.46,0,0.39,1,.48,1,0.48a1.07,1.07,0,0,0,.63,1.22h0Z" transform="translate(-6.34 -6.19)"/><path class="cls-3" d="M83.23,111.25a30.87,30.87,0,0,1-11.44,2.33,44.92,44.92,0,0,1-11.14-1.39l3.29-2.35s-6.76.54-11.37-1.09C57.23,120.8,73,141.28,101,141.28c15.62,0,37.74-6.84,49-32.56,0,0-2.38,1.63-11.17,1.09l3.27,2.53s-3.59,1-11.17,1-8.87-1.24-11.22-2.13a19.41,19.41,0,0,1-18.55,13.89C92.57,125.14,84.65,118.7,83.23,111.25Z" transform="translate(-6.34 -6.19)"/><path class="cls-4" d="M96.21,25.2V24.7A6.9,6.9,0,0,1,94,22.44C61.6,23.27,32.93,33.89,30.67,34.9s-1.81,3.69-1.81,3.69A205.06,205.06,0,0,1,96.21,25.2Z" transform="translate(-6.34 -6.19)"/><path class="cls-4" d="M106.53,25.2V24.7a6.91,6.91,0,0,0,2.17-2.26C141.15,23.27,171.75,34.69,174,35.7s1.81,3.69,1.81,3.69A210.58,210.58,0,0,0,106.53,25.2Z" transform="translate(-6.34 -6.19)"/><path class="cls-4" d="M101.35,72.13c0.49,0,.38,3.41.65,4.9s1,1.36,1.47.49c2-3.68,3.65-4.77,5.2-4.3-0.44.54-.41,1.06-0.52,2.53a2.77,2.77,0,0,1-2.7,2.34c-1.06,0-1.74,1.53-.82,2.83,1.44-1.88,2.94-3,4.41-2.81a9.61,9.61,0,0,0,.82-4.09c0-5-2.64-7.27-2.64-7.27l-0.33.49c-1.61-.74-3.08-2-5.53-2h-0.05c-2.45,0-3.92,1.28-5.53,2l-0.33-.49S92.82,69.05,92.82,74a9.61,9.61,0,0,0,.82,4.09c1.47-.16,3,0.93,4.41,2.81,0.93-1.31.25-2.83-.82-2.83a2.77,2.77,0,0,1-2.7-2.34c-0.11-1.47-.08-2-0.52-2.53,1.55-.46,3.21.63,5.2,4.3,0.49,0.87,1.2,1,1.47-.49S100.86,72.13,101.35,72.13Z" transform="translate(-6.34 -6.19)"/><path class="cls-3" d="M96.2,75.29l-0.57.22s0,1.31.74,1.47a1.86,1.86,0,0,0,1,.05V76.65S96,76.93,96.2,75.29Z" transform="translate(-6.34 -6.19)"/><path class="cls-3" d="M106.5,75.29l0.57,0.22s0,1.31-.73,1.47a1.86,1.86,0,0,1-1,.05V76.65S106.66,76.93,106.5,75.29Z" transform="translate(-6.34 -6.19)"/><path class="cls-3" d="M95.68,82.7c-0.46.27-.41,1.15,0.33,4.17s2.78,13.51,2.78,13.51-0.93-13.4-1-15S96.74,82.7,95.68,82.7Z" transform="translate(-6.34 -6.19)"/><path class="cls-3" d="M107,82.7c0.46,0.27.41,1.15-.33,4.17s-2.78,13.51-2.78,13.51,0.93-13.4,1-15S106,82.7,107,82.7Z" transform="translate(-6.34 -6.19)"/><path class="cls-3" d="M101.45,119a17.49,17.49,0,0,1,1.67-3s-0.9-1.63-.9-8.25,0.74-13.95,1.23-19.61,0.27-5.91.27-5.91h-0.16a11.93,11.93,0,0,1-.71,1.93V81.2a1.7,1.7,0,0,0-1.31-1.63h-0.28A1.7,1.7,0,0,0,100,81.2v2.94a11.89,11.89,0,0,1-.71-1.93H99.09s-0.22.25,0.27,5.91,1.23,13,1.23,19.61-0.9,8.25-.9,8.25a15.26,15.26,0,0,1,1.74,3.08Z" transform="translate(-6.34 -6.19)"/><path class="cls-4" d="M86,60.13c-10.57,0-42.73,6.11-67.3,18.36,0,0,.45.9,3.45,0.9,2,0,2.91-.7,7.37-2.44S58.1,65.84,82.2,64A26.53,26.53,0,0,0,79.85,74.6c0,10.68,8.17,15.81,9.7,17l0.85-.87c-5.33-4.88-7.48-9.56-7.48-14.56,0-6.5,4.1-12.43,5.13-13.75S88.9,60.13,86,60.13Z" transform="translate(-6.34 -6.19)"/><path class="cls-4" d="M116.69,60.13c10.57,0,42.73,6.11,67.3,18.36,0,0-.45.9-3.45,0.9-2,0-2.91-.7-7.37-2.44s-28.62-11.11-52.72-13A26.52,26.52,0,0,1,122.8,74.6c0,10.68-8.17,15.81-9.7,17l-0.85-.87c5.33-4.88,7.48-9.56,7.48-14.56,0-6.5-4.1-12.43-5.13-13.75S113.75,60.13,116.69,60.13Z" transform="translate(-6.34 -6.19)"/><path class="cls-1" d="M75.3,70.29a193.52,193.52,0,0,0-36.44,8.8s1.23,3.66,7.52,3.66c5,0,6.62-1.92,28.7-6.75A49.71,49.71,0,0,1,75.3,70.29Z" transform="translate(-6.34 -6.19)"/><path class="cls-1" d="M77,84.27a49.41,49.41,0,0,1-1.57-5.15,185.71,185.71,0,0,0-29.11,8.24s2.59,3,8.22,3C58.84,90.38,60.9,88.73,77,84.27Z" transform="translate(-6.34 -6.19)"/><path class="cls-1" d="M81.09,90.14a18,18,0,0,1-2.77-3.6c-8.24,2.72-18.59,6.24-22.54,7.74,0,0,1.73,2.35,6.11,2.35C64.85,96.63,68.37,95.4,81.09,90.14Z" transform="translate(-6.34 -6.19)"/><path class="cls-1" d="M86.45,94.22a23.07,23.07,0,0,1-3.39-2.32c-6.32,2.8-13.9,6.16-16.57,7.63,0,0,1.39,1.07,5.82,1.07C76.18,100.6,80.83,98.46,86.45,94.22Z" transform="translate(-6.34 -6.19)"/><path class="cls-1" d="M83.73,98.78s-4.88,3.15-6.94,4.72a14.62,14.62,0,0,0,5.68.19A43.34,43.34,0,0,1,83.73,98.78Z" transform="translate(-6.34 -6.19)"/><path class="cls-1" d="M127.39,70.29a193.53,193.53,0,0,1,36.44,8.8s-1.23,3.66-7.52,3.66c-5,0-6.62-1.92-28.7-6.75A49.61,49.61,0,0,0,127.39,70.29Z" transform="translate(-6.34 -6.19)"/><path class="cls-1" d="M125.65,84.27a49.34,49.34,0,0,0,1.57-5.15,185.71,185.71,0,0,1,29.11,8.24s-2.59,3-8.22,3C143.85,90.38,141.79,88.73,125.65,84.27Z" transform="translate(-6.34 -6.19)"/><path class="cls-1" d="M121.6,90.14a18,18,0,0,0,2.77-3.6c8.24,2.72,18.59,6.24,22.54,7.74,0,0-1.73,2.35-6.11,2.35C137.85,96.63,134.32,95.4,121.6,90.14Z" transform="translate(-6.34 -6.19)"/><path class="cls-1" d="M116.24,94.22a23.09,23.09,0,0,0,3.39-2.32c6.32,2.8,13.9,6.16,16.57,7.63,0,0-1.39,1.07-5.82,1.07C126.51,100.6,121.87,98.46,116.24,94.22Z" transform="translate(-6.34 -6.19)"/><path class="cls-1" d="M119,98.78s4.88,3.15,6.94,4.72a14.61,14.61,0,0,1-5.68.19A43.47,43.47,0,0,0,119,98.78Z" transform="translate(-6.34 -6.19)"/><path class="cls-1" d="M95.44,91.22c-3.79.91-5.21,5.8-3.43,10.48s4.12,8.19,4.36,13.08a6.48,6.48,0,0,0,2,.45,22.27,22.27,0,0,0,.73-5.29C99.09,107.2,96.84,98.54,95.44,91.22Z" transform="translate(-6.34 -6.19)"/><path class="cls-4" d="M96.6,96.86c-0.41-1.89-.81-3.81-1.16-5.64-3.38.81-4.87,4.78-3.9,8.94A10.62,10.62,0,0,1,96.6,96.86Z" transform="translate(-6.34 -6.19)"/><path class="cls-1" d="M88.95,95.79c-3.08,4.14-3.49,6.3-3.49,7.56s2.13,7.22,8.43,10.44C92.5,105.74,88.63,104.55,88.95,95.79Z" transform="translate(-6.34 -6.19)"/><path class="cls-4" d="M89.7,102.32a19,19,0,0,1-.75-6.53c-3.08,4.14-3.49,6.3-3.49,7.56a11.25,11.25,0,0,0,2.07,4.81S87.94,104.49,89.7,102.32Z" transform="translate(-6.34 -6.19)"/><path class="cls-1" d="M85.36,109.15a16.32,16.32,0,0,0,6.75,10.32,4.65,4.65,0,0,0,1.95-3.06C90.57,115.23,88.1,112.66,85.36,109.15Z" transform="translate(-6.34 -6.19)"/><path class="cls-4" d="M87.56,111.79c-0.73-.81-1.46-1.69-2.2-2.65a17.13,17.13,0,0,0,3.81,7.73A19.19,19.19,0,0,1,87.56,111.79Z" transform="translate(-6.34 -6.19)"/><path class="cls-1" d="M99,117.77s-1.42-.2-2.7-0.49a5.9,5.9,0,0,1-2.13,3.41,13.69,13.69,0,0,0,5.92,1.58C100.26,119.79,100,119.59,99,117.77Z" transform="translate(-6.34 -6.19)"/><path class="cls-1" d="M107.34,91.22c3.79,0.91,5.21,5.8,3.43,10.48s-4.12,8.19-4.36,13.08a6.46,6.46,0,0,1-2,.45,22.27,22.27,0,0,1-.73-5.29C103.69,107.2,105.94,98.54,107.34,91.22Z" transform="translate(-6.34 -6.19)"/><path class="cls-4" d="M106.18,96.86c0.41-1.89.81-3.81,1.16-5.64,3.38,0.81,4.87,4.78,3.9,8.94A10.62,10.62,0,0,0,106.18,96.86Z" transform="translate(-6.34 -6.19)"/><path class="cls-1" d="M113.83,95.79c3.08,4.14,3.49,6.3,3.49,7.56s-2.13,7.22-8.43,10.44C110.28,105.74,114.16,104.55,113.83,95.79Z" transform="translate(-6.34 -6.19)"/><path class="cls-4" d="M113.08,102.32a19,19,0,0,0,.75-6.53c3.08,4.14,3.49,6.3,3.49,7.56a11.26,11.26,0,0,1-2.07,4.81S114.84,104.49,113.08,102.32Z" transform="translate(-6.34 -6.19)"/><path class="cls-1" d="M117.42,109.15a16.32,16.32,0,0,1-6.75,10.32,4.65,4.65,0,0,1-1.95-3.06C112.21,115.23,114.68,112.66,117.42,109.15Z" transform="translate(-6.34 -6.19)"/><path class="cls-4" d="M115.22,111.79c0.73-.81,1.46-1.69,2.2-2.65a17.12,17.12,0,0,1-3.81,7.73A19.19,19.19,0,0,0,115.22,111.79Z" transform="translate(-6.34 -6.19)"/><path class="cls-1" d="M103.75,117.77s1.42-.2,2.7-0.49a5.9,5.9,0,0,0,2.13,3.41,13.69,13.69,0,0,1-5.92,1.58C102.52,119.79,102.78,119.59,103.75,117.77Z" transform="translate(-6.34 -6.19)"/><path class="cls-4" d="M22.29,38.37V58.5L16.79,40.8,12,43v1.84a1,1,0,0,0,1.14.92V57A2.6,2.6,0,0,0,12,59a1,1,0,0,0,1.2,1.12v16l3.24-1.63V54.22l5.44,17.58s0.12,0.35,2.22-.65c1.47-.63,1.49-1.12,1.49-1.88V54.48a2.35,2.35,0,0,0,1.08-1.79,1,1,0,0,0-1.1-1.06V40.21a4.33,4.33,0,0,0,1.2-2V36.42Z" transform="translate(-6.34 -6.19)"/><path class="cls-4" d="M28.15,41.55v2.24a1.92,1.92,0,0,0,1.12.59v8.77a2.51,2.51,0,0,0-1.12,1.94,1,1,0,0,0,1.14,1.1V69.12s9.3-3.32,10.5-3.71a1.48,1.48,0,0,0,1.06-1.79v-7.5s-3.38.67-3.61,2V63L33,64.56V55L38.5,53V49.79L33,51.73V43.1l4.26-1.59V46.2c0,0.82,1,.84,3.59-0.2V37.92c0-.59-0.65-0.75-2-0.27S28.15,41.55,28.15,41.55Z" transform="translate(-6.34 -6.19)"/><path class="cls-4" d="M47.37,35.15L42.73,36.5v1.81c0,0.9,1.26.53,1.45,2.08s0.88,7.71.88,7.71a2,2,0,0,0-1,1.59,1.26,1.26,0,0,0,1.41,1.16S46.93,62.53,47,62.78s0.27,0.41,2.81-.26,3-.37,3.34-2.2L56.31,42s3,16.78,3.08,17.45,0.67,0.61,3.22.16,2.9-.53,3-1.73S67,45.92,67,45.92a2,2,0,0,0,1.37-1.67A1.14,1.14,0,0,0,67.46,43l0.92-8.93s1.39-1.31,1.39-1.84V30.3l-4.79,1L62.26,56s-3.67-20.45-3.94-22c-0.27-1.73-3.9-1.06-4.16.51L50.23,58.7Z" transform="translate(-6.34 -6.19)"/><path class="cls-4" d="M94.76,32.74v7.4a1.43,1.43,0,0,1,1.39,1.43,1.56,1.56,0,0,1-1.43,1.51V51c0,3.65-3.45,5.77-7.4,5.77s-6.18-2-6.18-4.69V44a1.41,1.41,0,0,1-1.3-1.41,1.56,1.56,0,0,1,1.31-1.51v-7.4c0-2.88,2.9-5.61,7.52-5.61C92.48,28.07,94.76,30.21,94.76,32.74Zm-6.61-1.47C86,31.27,85,32.58,85,34.07V51a2.52,2.52,0,0,0,2.73,2.47,3,3,0,0,0,3.18-2.73V33.62C90.91,31.68,89.17,31.27,88.15,31.27Z" transform="translate(-6.34 -6.19)"/><path class="cls-4" d="M96.9,29.44V28h8.56a5.62,5.62,0,0,1,5.67,5.44v4.63c0,1.9-2.12,3.39-2.12,3.39a4.89,4.89,0,0,1,2.14,4v7.44s1.35,0.59,1.35,1.39v1.92a19.19,19.19,0,0,0-2.87-.16c-1.73,0-2.39-.51-2.39-2V45.18c0-1.69-1.55-2.08-3.34-2.08s-1.92.29-1.92,0.59V56.07H98.19V43A1.47,1.47,0,0,1,97,41.55a1.7,1.7,0,0,1,1.22-1.45V31.3A2.79,2.79,0,0,1,96.9,29.44Zm8.34,1.73h-2.59A0.69,0.69,0,0,0,102,32v7.42a0.74,0.74,0,0,0,.9.63h2.36a2.21,2.21,0,0,0,2-2.43V33.23A2.27,2.27,0,0,0,105.24,31.17Z" transform="translate(-6.34 -6.19)"/><path class="cls-4" d="M113.52,28.3v1.53a2.79,2.79,0,0,0,1.28,1.79v8.89a1.41,1.41,0,0,0-1.28,1.39,1.59,1.59,0,0,0,1.28,1.51v13s7,0.37,10.2.88c1.77,0.31,1.71-.37,1.71-1.18V46.34c0-.27-3.73-0.94-3.73.47v7.1s-3.06,0-4.28-.63V31.87a2.6,2.6,0,0,0,1.24-1.67V28.71Z" transform="translate(-6.34 -6.19)"/><path class="cls-4" d="M128.22,29.66v1.47a2.35,2.35,0,0,0,1.33,2.06V42a1.44,1.44,0,0,0-1.32,1.3,1.74,1.74,0,0,0,1.3,1.63v13s9.15,1.41,10.48,1.77,1.39-.43,1.39-1.39V51c0-.2-3.79-1.1-3.79.16V56l-4.26-.73V45.67a35.06,35.06,0,0,1,5.61,1V43.57s-0.27-.47-5.67-1.16v-8.1c0-.49.35-0.65,1.47-0.45s2.85,0.55,2.85.55v4.28c0,1.31,1.14,1.88,3.81,2.12V32.6c0-.45,0-0.67-2.35-1.12S128.22,29.66,128.22,29.66Z" transform="translate(-6.34 -6.19)"/><path class="cls-4" d="M151.24,34.13c1.39,0.37,2.87.49,3.2,2.89s1.73,10.44,1.73,10.44a2.44,2.44,0,0,1,1.37,1.88,1.34,1.34,0,0,1-.9,1.22L159,64.33l-3.91-1.2-0.94-7.26a23.47,23.47,0,0,0-5.45-1.55l-1.18,6.95-3.77-.9L146.21,48a2.63,2.63,0,0,1-1-1.81c0-1,1.53-1.06,1.53-1.06l1.61-8.54c-1.08-1-1.14-1.33-1.14-2V33.15S149.84,33.76,151.24,34.13Zm0.18,4.14L149.18,51s-0.06.43,4.42,1.29Z" transform="translate(-6.34 -6.19)"/><path class="cls-4" d="M160.76,36.68v1.79a2.14,2.14,0,0,0,1.22,2v8.85a1.23,1.23,0,0,0-1.24,1.1A2,2,0,0,0,162,52.13V65.24l3.36,1V48.34S170.93,67.75,171,68s3.67,2,3.67.78V56.54a1,1,0,0,0,1.06-1,2.17,2.17,0,0,0-1-1.77v-9s1.16-.65,1.16-1.16V42l-4.47-1.73V58.84s-5-18.23-5.32-19.45-1.43-1.35-2.83-1.81S160.76,36.68,160.76,36.68Z" transform="translate(-6.34 -6.19)"/><path class="cls-4" d="M190.39,51.34V47.85c0-4.4-5.36-8.77-9.38-8.77-1.79,0-3.06,1.16-3.06,3.47v5.71c0,2.26,1,4,4.42,7.4-0.25,1.84.49,2.92,2.55,2.88,0,0,2,2.18,2,3.9v7.5c0,0.88-1.47,1.63-3.22.57s-2.37-2.34-2.37-3.3v-2.1c0-.75-1.92-2.14-3.73-2.55v3c0,5.42,6.38,9.11,10,9.11,2.65,0,3-1.9,3-3.38V63.88c0-2.65-2.79-6.08-4.16-7.44a2.18,2.18,0,0,0-2.32-2.69s-2.67-2.77-2.67-4V44.12c0-1,.79-1.59,2.43-0.92a5.62,5.62,0,0,1,2.51,2.18v2.16C186.52,48.68,187.64,50.42,190.39,51.34Z" transform="translate(-6.34 -6.19)"/><path class="cls-4" d="M73.66,119.57c1.81,1.8-1,4.2-2.33,3s-2.16-2.09-2.16-2.09l-1.59,1.69L66.42,121l4.16-4.27S71.84,117.78,73.66,119.57Zm-1.08.5-1.66-1.52-1,1.09s1.12,1.09,1.67,1.59S73.33,120.79,72.58,120.07Z" transform="translate(-6.34 -6.19)"/><polygon class="cls-4" points="76.25 119.57 71.47 116.66 68.25 121.85 73.22 124.86 73.86 123.85 70.19 121.6 70.89 120.5 74.24 122.55 74.85 121.5 71.49 119.5 72.14 118.43 75.66 120.53 76.25 119.57"/><polygon class="cls-4" points="81.38 121.66 79.78 121.1 77.69 126.71 82.49 128.53 82.92 127.28 79.69 126.13 81.38 121.66"/><polygon class="cls-4" points="89.6 123.39 87.97 123.35 86.99 129.35 88.63 129.55 89.6 123.39"/><path class="cls-4" d="M105.36,132.06l1.64-.5s-0.75-1.73-3.44-1.73c-2.48,0-3.8,1.31-3.8,3.34s1.47,3.17,3.61,3.17,3.22-.78,3.77-2.48h-1.75a1.91,1.91,0,0,1-1.91,1.22,2,2,0,1,1,0-4.09A2,2,0,0,1,105.36,132.06Z" transform="translate(-6.34 -6.19)"/><path class="cls-4" d="M118.42,133l-1.47.77-1-1.12-2.81.81L113,134.82l-1.64.44,0.86-6.56,1.64-.58Zm-4.84-3.09-0.25,2.45,1.94-.56L113.64,130" transform="translate(-6.34 -6.19)"/><polygon class="cls-4" points="114.7 118.96 113.42 119.78 116.61 125.1 117.86 124.16 115.53 120.68 121.03 122.39 122.27 121.57 119.05 116.3 117.8 117.22 120.06 120.66 114.7 118.96"/><path class="cls-4" d="M133,118.12l0.78-1.19a2.62,2.62,0,0,0-2.37.19,5.07,5.07,0,0,0-1.94,2,1.73,1.73,0,0,0,2.45,2.33c1.69-1.16,2.31-1.86,2.8-1.36s-0.58,2.55-2.77,2.31l-0.59,1.36a3.44,3.44,0,0,0,3.67-1.3c1.8-2,1.58-3.87-.45-4-1.64,0-3.16,2.61-3.89,1.78S132,117.79,133,118.12Z" transform="translate(-6.34 -6.19)"/></svg>